<svg width="100" height="100" viewBox="0 0 521 416" fill="none" xmlns="http://www.w3.org/2000/svg">
<path d="M0.318359 413.168V319.786C0.318359 319.127 0.855719 318.592 1.51172 318.592H13.6277C13.9442 318.592 14.2477 318.718 14.4715 318.942C14.6953 319.166 14.821 319.469 14.821 319.786V401.674C14.821 402.334 15.3543 402.871 16.017 402.871H57.1331C57.7917 402.871 58.329 403.404 58.329 404.063V413.168C58.3283 413.485 58.202 413.789 57.9778 414.012C57.7536 414.236 57.4498 414.362 57.1331 414.362H1.51172C1.19544 414.361 0.892261 414.235 0.66862 414.011C0.444979 413.788 0.319064 413.485 0.318359 413.168ZM98.8237 356.763C93.989 356.763 89.7037 358.2 85.965 361.074C82.5343 363.706 80.3343 367.548 79.3583 372.598C79.2197 373.326 79.8037 374 80.541 374H116.134C116.833 374 117.402 373.398 117.326 372.703C116.836 368.023 114.997 364.256 111.821 361.416C108.354 358.315 104.024 356.763 98.8237 356.763ZM98.8237 416.003C92.1637 416.003 86.2583 414.52 81.105 411.554C75.9543 408.595 71.9184 404.466 68.9984 399.174C66.0784 393.888 64.621 387.73 64.621 380.707C64.621 373.588 66.0584 367.344 68.9317 361.963C71.8051 356.582 75.8157 352.383 80.969 349.376C86.1237 346.366 92.121 344.86 98.9623 344.86C105.618 344.86 111.409 346.343 116.336 349.306C121.265 352.271 125.096 356.216 127.829 361.143C130.564 366.066 131.932 371.494 131.932 377.423C131.918 379.195 131.852 380.967 131.734 382.735C131.715 383.038 131.58 383.323 131.359 383.531C131.137 383.739 130.845 383.855 130.541 383.855H80.1597C79.993 383.854 79.8281 383.889 79.6755 383.956C79.5229 384.023 79.386 384.121 79.2736 384.244C79.1612 384.367 79.0758 384.512 79.0229 384.67C78.97 384.828 78.9508 384.996 78.9664 385.162C79.6064 391.087 81.7304 395.644 85.3464 398.834C89.2264 402.255 93.7157 403.967 98.8237 403.967C102.93 403.967 106.37 403.03 109.154 401.158C111.732 399.427 113.702 397.127 115.066 394.258C115.16 394.053 115.311 393.879 115.5 393.757C115.689 393.634 115.909 393.568 116.134 393.566H128.248C129.054 393.566 129.652 394.363 129.39 395.127C127.446 400.828 123.984 405.643 119.004 409.571C113.577 413.86 106.852 416.003 98.8237 416.003ZM134.368 412.476L156.617 381.122C156.762 380.92 156.84 380.679 156.84 380.431C156.84 380.183 156.762 379.941 156.617 379.74L134.368 348.386C134.241 348.207 134.166 347.997 134.151 347.778C134.135 347.56 134.18 347.341 134.281 347.147C134.381 346.952 134.533 346.789 134.72 346.675C134.907 346.561 135.122 346.501 135.341 346.5H147.869C148.061 346.501 148.25 346.548 148.42 346.637C148.59 346.726 148.737 346.854 148.848 347.011L165.702 371.094C165.813 371.251 165.96 371.38 166.131 371.468C166.302 371.557 166.491 371.603 166.684 371.603C166.876 371.602 167.066 371.556 167.236 371.467C167.407 371.378 167.553 371.249 167.664 371.091L184.39 347.015C184.612 346.695 184.977 346.5 185.373 346.5H198.03C198.249 346.501 198.464 346.561 198.651 346.675C198.838 346.789 198.99 346.953 199.09 347.147C199.191 347.341 199.236 347.56 199.221 347.778C199.206 347.997 199.131 348.207 199.005 348.386L176.752 379.74C176.609 379.942 176.532 380.184 176.532 380.431C176.532 380.678 176.609 380.92 176.752 381.122L199.005 412.476C199.132 412.655 199.207 412.865 199.222 413.083C199.237 413.302 199.192 413.52 199.092 413.715C198.991 413.91 198.839 414.073 198.652 414.187C198.465 414.301 198.251 414.361 198.032 414.362H185.373C185.18 414.362 184.99 414.316 184.819 414.227C184.648 414.138 184.501 414.009 184.39 413.851L167.664 389.771C167.553 389.613 167.407 389.485 167.236 389.396C167.066 389.307 166.877 389.26 166.684 389.26C166.492 389.26 166.303 389.306 166.132 389.394C165.961 389.483 165.814 389.611 165.704 389.768L148.848 413.851C148.737 414.008 148.59 414.136 148.42 414.225C148.25 414.314 148.061 414.36 147.869 414.362H135.34C135.121 414.362 134.906 414.301 134.719 414.187C134.532 414.073 134.38 413.91 134.279 413.715C134.179 413.52 134.134 413.302 134.15 413.083C134.165 412.865 134.241 412.655 134.368 412.476ZM214.212 413.168V319.786C214.212 319.127 214.745 318.592 215.405 318.592H230.578C230.799 318.591 231.016 318.652 231.204 318.767C231.392 318.883 231.545 319.048 231.644 319.246L262.669 380.251C262.769 380.448 262.922 380.613 263.11 380.728C263.299 380.843 263.515 380.904 263.736 380.903C263.957 380.903 264.173 380.842 264.361 380.726C264.549 380.61 264.701 380.445 264.801 380.248L295.694 319.248C295.894 318.847 296.308 318.592 296.76 318.592H311.93C312.247 318.592 312.551 318.717 312.776 318.941C313 319.165 313.127 319.469 313.128 319.786V413.168C313.127 413.485 313 413.789 312.776 414.013C312.551 414.236 312.247 414.362 311.93 414.362H299.821C299.664 414.362 299.509 414.331 299.364 414.272C299.218 414.212 299.087 414.124 298.976 414.013C298.864 413.902 298.776 413.771 298.716 413.626C298.656 413.481 298.625 413.325 298.625 413.168V348.57C298.625 347.318 296.937 346.912 296.37 348.027L269.677 400.034C269.577 400.228 269.425 400.391 269.238 400.505C269.051 400.619 268.836 400.679 268.617 400.679H258.853C258.635 400.679 258.421 400.62 258.234 400.506C258.047 400.393 257.896 400.23 257.796 400.036L230.969 348.128C230.392 347.018 228.712 347.427 228.712 348.676V413.168C228.712 413.485 228.586 413.788 228.362 414.012C228.138 414.236 227.835 414.362 227.518 414.362H215.405C215.089 414.362 214.785 414.236 214.561 414.012C214.337 413.788 214.212 413.485 214.212 413.168ZM360.325 356.763C355.488 356.763 351.2 358.2 347.466 361.074C344.036 363.706 341.836 367.548 340.86 372.598C340.721 373.326 341.305 374 342.042 374H377.632C378.334 374 378.904 373.398 378.828 372.703C378.337 368.023 376.498 364.256 373.322 361.416C369.856 358.315 365.525 356.763 360.325 356.763ZM360.325 416.003C353.665 416.003 347.76 414.52 342.606 411.554C337.456 408.595 333.42 404.466 330.5 399.174C327.58 393.888 326.122 387.73 326.122 380.707C326.122 373.588 327.56 367.344 330.433 361.963C333.306 356.582 337.317 352.383 342.47 349.376C347.625 346.366 353.622 344.86 360.46 344.86C367.12 344.86 372.91 346.343 377.836 349.306C382.762 352.271 386.596 356.216 389.33 361.143C392.065 366.066 393.433 371.494 393.433 377.423C393.419 379.195 393.354 380.967 393.236 382.735C393.216 383.038 393.082 383.323 392.86 383.531C392.639 383.739 392.346 383.855 392.042 383.855H341.661C341.494 383.854 341.329 383.889 341.177 383.956C341.024 384.023 340.887 384.121 340.775 384.244C340.663 384.367 340.577 384.512 340.524 384.67C340.471 384.828 340.452 384.996 340.468 385.162C341.108 391.087 343.232 395.644 346.848 398.834C350.728 402.255 355.214 403.967 360.325 403.967C364.428 403.967 367.872 403.03 370.656 401.158C373.229 399.427 375.204 397.127 376.568 394.258C376.662 394.053 376.812 393.879 377.001 393.757C377.19 393.634 377.41 393.568 377.636 393.566H389.749C390.556 393.566 391.153 394.363 390.893 395.127C388.948 400.828 385.485 405.643 380.506 409.571C375.08 413.86 368.353 416.003 360.325 416.003ZM436.804 356.763C431.966 356.763 427.678 358.2 423.945 361.074C420.514 363.706 418.314 367.548 417.338 372.598C417.197 373.326 417.778 374 418.521 374H454.11C454.809 374 455.382 373.398 455.306 372.703C454.813 368.023 452.977 364.256 449.797 361.416C446.334 358.315 442.001 356.763 436.804 356.763ZM436.804 416.003C430.144 416.003 424.238 414.52 419.084 411.554C413.934 408.595 409.897 404.466 406.977 399.174C404.057 393.888 402.601 387.73 402.601 380.707C402.601 373.588 404.038 367.344 406.912 361.963C409.785 356.582 413.796 352.383 418.949 349.376C424.104 346.366 430.101 344.86 436.938 344.86C443.598 344.86 449.389 346.343 454.314 349.306C459.241 352.271 463.074 356.216 465.808 361.143C468.544 366.066 469.912 371.494 469.912 377.423C469.912 378.334 469.889 379.316 469.842 380.364C469.808 381.154 469.765 381.944 469.714 382.734C469.694 383.037 469.56 383.321 469.338 383.529C469.117 383.736 468.825 383.853 468.521 383.854H418.137C417.97 383.853 417.805 383.888 417.653 383.955C417.5 384.022 417.364 384.12 417.251 384.244C417.139 384.367 417.054 384.512 417.001 384.67C416.948 384.828 416.929 384.996 416.945 385.162C417.584 391.087 419.709 395.644 423.325 398.834C427.204 402.255 431.692 403.967 436.802 403.967C440.905 403.967 444.349 403.03 447.133 401.158C449.706 399.427 451.68 397.127 453.045 394.258C453.138 394.053 453.288 393.878 453.477 393.756C453.666 393.633 453.886 393.567 454.112 393.566H466.226C467.033 393.566 467.63 394.363 467.369 395.127C465.422 400.828 461.958 405.643 456.982 409.571C451.556 413.86 444.83 416.003 436.802 416.003M508.222 414.363C501.562 414.363 496.27 412.743 492.352 409.504C488.428 406.268 486.466 400.498 486.466 392.198V359.874C486.466 359.215 485.933 358.68 485.274 358.68H476.033C475.716 358.68 475.413 358.553 475.19 358.329C474.966 358.105 474.841 357.801 474.841 357.484V347.698C474.841 347.035 475.374 346.502 476.033 346.502H485.393C486.005 346.502 486.516 346.04 486.582 345.43L488.137 330.336C488.2 329.724 488.71 329.263 489.326 329.263H499.777C499.934 329.263 500.089 329.293 500.234 329.353C500.379 329.413 500.511 329.501 500.622 329.612C500.733 329.723 500.821 329.854 500.882 329.999C500.942 330.144 500.973 330.299 500.973 330.456V345.31C500.973 345.967 501.506 346.502 502.165 346.502H518.932C519.588 346.502 520.125 347.035 520.125 347.698V357.484C520.125 357.801 519.999 358.104 519.775 358.329C519.552 358.553 519.248 358.679 518.932 358.68H502.165C501.849 358.681 501.546 358.807 501.322 359.03C501.099 359.254 500.973 359.557 500.973 359.874V392.198C500.973 395.938 501.766 398.515 503.365 399.928C504.96 401.342 507.721 402.048 511.642 402.048H518.246C518.906 402.048 519.44 402.582 519.44 403.24V413.168C519.44 413.824 518.906 414.362 518.246 414.362L508.222 414.363Z" fill="#5E1B89"/>
<path d="M389.541 142.268V160.202C389.54 160.732 389.434 161.257 389.23 161.747C389.025 162.236 388.725 162.68 388.349 163.054C387.972 163.427 387.525 163.722 387.033 163.922C386.542 164.122 386.016 164.223 385.485 164.219H321.984C319.747 164.219 317.931 162.399 317.931 160.202V142.268C317.93 141.65 318.052 141.037 318.288 140.466C318.525 139.894 318.872 139.375 319.309 138.938C319.747 138.5 320.266 138.153 320.837 137.917C321.409 137.68 322.021 137.559 322.64 137.559H338.48C339.541 137.559 340.408 136.696 340.408 135.631V63.9619C340.408 61.2592 337.785 59.3552 335.212 60.1166L262.533 86.9005C262.242 87.0076 261.929 87.0428 261.621 87.003C261.313 86.9633 261.02 86.8498 260.765 86.6721C260.51 86.4945 260.302 86.258 260.159 85.9827C260.015 85.7075 259.94 85.4016 259.94 85.0912V59.6645C259.94 58.8578 260.442 58.1393 261.199 57.8593L347.265 25.9873C356.885 22.4273 367.105 29.542 367.105 39.7979V135.631C367.105 136.696 367.972 137.559 369.031 137.559H384.831C387.431 137.559 389.541 139.666 389.541 142.268Z" fill="#F4512C"/>
<path d="M130.903 142.268V160.202C130.904 160.732 131.01 161.257 131.214 161.747C131.419 162.236 131.718 162.68 132.095 163.054C132.472 163.427 132.919 163.722 133.411 163.922C133.902 164.122 134.428 164.223 134.959 164.219H198.46C200.697 164.219 202.513 162.399 202.513 160.202V142.268C202.514 141.65 202.392 141.037 202.155 140.466C201.919 139.894 201.572 139.375 201.135 138.938C200.697 138.5 200.178 138.153 199.606 137.917C199.035 137.68 198.422 137.559 197.804 137.559H181.964C180.903 137.559 180.036 136.696 180.036 135.631V63.9619C180.036 61.2592 182.659 59.3552 185.232 60.1166L257.91 86.9005C258.202 87.0076 258.515 87.0428 258.823 87.003C259.131 86.9633 259.424 86.8498 259.679 86.6721C259.934 86.4945 260.142 86.258 260.285 85.9827C260.429 85.7075 260.504 85.4016 260.504 85.0912V59.6645C260.504 58.8578 260.002 58.1393 259.245 57.8593L173.179 25.9873C163.559 22.4273 153.339 29.542 153.339 39.7979V135.631C153.339 136.696 152.472 137.559 151.413 137.559H135.613C134.364 137.559 133.166 138.055 132.283 138.938C131.4 139.821 130.903 141.019 130.903 142.268Z" fill="#F4512C"/>
<path d="M218.041 243.688H157.311C156.783 243.688 156.261 243.585 155.773 243.383C155.286 243.181 154.843 242.885 154.47 242.512C154.097 242.139 153.801 241.696 153.599 241.209C153.397 240.721 153.293 240.199 153.293 239.671V221.034C153.293 220.506 153.397 219.984 153.599 219.496C153.801 219.009 154.097 218.566 154.47 218.193C154.843 217.82 155.286 217.524 155.773 217.322C156.261 217.12 156.783 217.016 157.311 217.016H218.044C218.572 217.016 219.094 217.12 219.582 217.322C220.069 217.524 220.512 217.819 220.885 218.193C221.259 218.566 221.555 219.009 221.757 219.496C221.959 219.984 222.063 220.506 222.063 221.034V239.67C222.063 240.197 221.959 240.72 221.756 241.208C221.554 241.695 221.258 242.138 220.885 242.511C220.512 242.884 220.068 243.18 219.581 243.382C219.093 243.584 218.57 243.687 218.043 243.687M367.186 221.052V239.679C367.183 240.745 366.759 241.767 366.005 242.522C365.251 243.276 364.229 243.701 363.162 243.704H260.896C253.033 243.704 246.604 237.272 246.604 229.411V26.6835H228.157C227.091 26.6793 226.069 26.2536 225.316 25.4993C224.562 24.7449 224.137 23.7232 224.133 22.6568V3.98491C224.133 3.46231 224.235 2.94473 224.435 2.4618C224.635 1.97886 224.928 1.54002 225.297 1.1703C225.666 0.80058 226.105 0.50721 226.588 0.307019C227.07 0.106828 227.588 0.00372787 228.111 0.00355285H291.726C292.782 0.00355232 293.794 0.422485 294.54 1.16826C295.287 1.91404 295.707 2.92562 295.708 3.98084V22.6555C295.705 23.7225 295.279 24.7448 294.525 25.4993C293.77 26.2537 292.748 26.679 291.681 26.6821H273.28V213.006C273.284 214.072 273.709 215.093 274.463 215.846C275.217 216.6 276.238 217.025 277.304 217.028H363.162C364.229 217.031 365.251 217.456 366.005 218.21C366.759 218.964 367.184 219.986 367.186 221.052Z" fill="#5E1B89"/>
</svg>
